#!OML:ASF F:\VICON\USERDATA\INSTALL\rory3\rory3.ASF
:FULLY-SPECIFIED
:DEGREES
48
root -0.0189673 17.5026 5.82272 16.1858 -5.83344 -3.49073
lowerback -11.4012 0.336886 4.01432
upperback -5.75802 0.0103944 1.3508
thorax 0.376383 -0.0628252 -0.855496
lowerneck -16.0491 -3.0308 -6.48266
upperneck 29.4502 -3.57208 3.39023
head 12.6353 -1.88822 1.85374
rclavicle -1.38839e-015 -3.97569e-015
rhumerus -39.2609 5.29211 -89.0806
rradius 33.8943
rwrist 10.478
rhand -22.5501 -47.073
rfingers 7.12502
rthumb 3.87759 -77.0175
lclavicle -1.38839e-015 -3.97569e-015
lhumerus -37.6002 -4.90785 88.1431
lradius 33.1774
lwrist 5.7002
lhand -31.9571 -31.6117
lfingers 7.12502
lthumb -5.20735 -1.69566
rfemur -19.7287 12.6296 16.7918
rtibia 21.7987
rfoot -12.3276 -17.8984
rtoes -9.95058
lfemur -17.5728 -13.7195 -11.7347
ltibia 21.1577
lfoot -13.0164 26.1144
ltoes -8.24136
49
root -0.0190148 17.5004 5.83003 15.7668 -5.2682 -3.2354
lowerback -11.1161 0.104527 3.84576
upperback -5.67097 -0.266636 1.31794
thorax 0.302299 -0.198173 -0.826149
lowerneck -16.0476 -3.01488 -6.50752
upperneck 29.528 -3.54962 3.4086
head 12.6663 -1.87943 1.86952
rclavicle -1.1865e-015 -3.57812e-015
rhumerus -39.3146 5.28293 -89.0724
rradius 33.7879
rwrist 10.5392
rhand -22.6391 -46.6339
rfingers 7.12502
rthumb 3.79161 -76.5799
lclavicle -1.1865e-015 -3.57812e-015
lhumerus -37.6492 -4.86897 88.1786
lradius 33.2275
lwrist 5.9597
lhand -31.9872 -31.8202
lfingers 7.12502
lthumb -5.23636 -1.90491
rfemur -19.1317 12.5462 16.7576
rtibia 21.8473
rfoot -12.5225 -18.3592
rtoes -9.60643
lfemur -17.1986 -13.9669 -11.9618
ltibia 21.0548
lfoot -12.9495 25.773
ltoes -8.57064
50
root -0.022031 17.5001 5.82101 16.1529 -5.83234 -3.35647
lowerback -11.3626 0.308174 3.8114
upperback -5.76276 -0.00495455 1.33604
thorax 0.351218 -0.0671044 -0.758803
lowerneck -16.158 -3.03853 -6.4499
upperneck 29.6133 -3.56448 3.30968
head 12.7222 -1.89213 1.81896
rclavicle -4.30493e-015 1.09332e-014
rhumerus -39.3805 5.35786 -89.1268
rradius 33.9315
rwrist 10.4048
rhand -22.5967 -46.9288
rfingers 7.12502
rthumb 3.83256 -76.8741
lclavicle -4.30493e-015 1.09332e-014
lhumerus -37.6817 -4.77394 88.1716
lradius 33.4089
lwrist 6.14586
lhand -31.8488 -31.6399
lfingers 7.12502
lthumb -5.10271 -1.72134
rfemur -19.7335 12.5468 16.6831
rtibia 21.914
rfoot -12.3537 -17.8492
rtoes -9.97842
lfemur -17.4956 -13.7719 -11.8643
ltibia 21.0305
lfoot -13.0085 26.1286
ltoes -8.22638
51
root -0.0209471 17.4987 5.83235 15.785 -5.3445 -3.10585
lowerback -11.2298 0.117329 3.68338
upperback -5.63865 -0.240052 1.27461
thorax 0.400279 -0.180402 -0.777496
lowerneck -16.2081 -3.06751 -6.39963
upperneck 29.6667 -3.59048 3.21756
head 12.7534 -1.9101 1.77059
rclavicle 5.57218e-015 -2.98177e-015
rhumerus -39.3968 5.39168 -89.1815
rradius 33.959
rwrist 10.3825
rhand -22.3328 -47.2787
rfingers 7.12502
rthumb 4.08736 -77.2193
lclavicle 5.57218e-015 -2.98177e-015
lhumerus -37.7111 -4.77508 88.1863
lradius 33.4714
lwrist 6.14839
lhand -31.7999 -31.3243
lfingers 7.12502
lthumb -5.05553 -1.40461
rfemur -19.2374 12.3938 16.6221
rtibia 21.9993
rfoot -12.5781 -18.2179
rtoes -9.9792
lfemur -17.1354 -13.9134 -12.1173
ltibia 20.9235
lfoot -12.9147 25.7546
ltoes -8.48672
52
root -0.0217588 17.4974 5.83705 15.7195 -5.33237 -3.05004
lowerback -11.1391 0.115918 3.64627
upperback -5.70894 -0.231253 1.2464
thorax 0.278298 -0.178294 -0.784419
lowerneck -16.0352 -3.05888 -6.41933
upperneck 29.6888 -3.5857 3.21922
head 12.7263 -1.91219 1.77719
rclavicle -1.34832e-014 1.19271e-014
rhumerus -39.5894 5.37116 -89.2081
rradius 33.9319
rwrist 10.5337
rhand -22.324 -47.1852
rfingers 7.12502
rthumb 4.09586 -77.1256
lclavicle -1.34832e-014 1.19271e-014
lhumerus -37.8529 -4.88244 88.2703
lradius 33.3832
lwrist 6.22261
lhand -31.8437 -31.3984
lfingers 7.12502
lthumb -5.09784 -1.47972
rfemur -19.1802 12.345 16.5886
rtibia 22.0725
rfoot -12.7308 -18.2006
rtoes -10.066
lfemur -17.0339 -13.7895 -12.206
ltibia 20.8819
lfoot -12.9007 25.6027
ltoes -8.5107
53
root -0.0227026 17.4972 5.83914 15.7259 -5.3041 -3.05419
lowerback -11.0877 0.129684 3.66524
upperback -5.78733 -0.20976 1.23233
thorax 0.169139 -0.170662 -0.806844
lowerneck -15.853 -3.0664 -6.45081
upperneck 29.6549 -3.61087 3.25504
head 12.6771 -1.92387 1.79381
rclavicle 7.56935e-015 2.5842e-015
rhumerus -39.7799 5.32092 -89.2241
rradius 33.9799
rwrist 10.4924
rhand -22.5076 -47.0545
rfingers 7.12502
rthumb 3.91864 -76.9982
lclavicle 7.56935e-015 2.5842e-015
lhumerus -37.9065 -4.93872 88.3117
lradius 33.261
lwrist 6.33605
lhand -31.6625 -31.6774
lfingers 7.12502
lthumb -4.9229 -1.75462
rfemur -19.2041 12.2942 16.6124
rtibia 22.109
rfoot -12.7249 -18.1804
rtoes -9.97339
lfemur -17.0041 -13.6639 -12.1979
ltibia 20.8256
lfoot -13.0012 25.4114
ltoes -8.46034
54
root -0.023424 17.4979 5.83984 15.7682 -5.2689 -3.07446
lowerback -11.223 0.135086 3.69947
upperback -5.69833 -0.214993 1.22098
thorax 0.334866 -0.170506 -0.839046
lowerneck -15.9333 -3.06893 -6.44878
upperneck 29.5927 -3.62025 3.29657
head 12.6697 -1.92064 1.80668
rclavicle 4.34841e-017 -5.56597e-015
rhumerus -39.6608 5.32954 -89.2526
rradius 34.0271
rwrist 10.3492
rhand -22.7299 -47.1401
rfingers 7.12502
rthumb 3.70395 -77.0877
lclavicle 4.34841e-017 -5.56597e-015
lhumerus -37.6378 -5.02082 88.32
lradius 33.0862
lwrist 6.43137
lhand -31.6096 -31.9409
lfingers 7.12502
lthumb -4.87177 -2.0169
rfemur -19.2513 12.2267 16.6466
rtibia 22.1144
rfoot -12.7059 -18.1492
rtoes -9.69791
lfemur -17.0578 -13.5912 -12.1613
ltibia 20.8514
lfoot -13.1115 25.3098
ltoes -8.58337
55
root -0.0261906 17.4973 5.83843 15.7843 -5.22142 -3.1445
lowerback -11.3442 0.122534 3.75028
upperback -5.57634 -0.246534 1.23941
thorax 0.52627 -0.182542 -0.852798
lowerneck -16.0635 -3.06212 -6.43615
upperneck 29.5143 -3.59883 3.28742
head 12.6632 -1.90857 1.80242
rclavicle -2.15557e-015 5.86415e-015
rhumerus -39.4758 5.38918 -89.2872
rradius 33.983
rwrist 10.3911
rhand -22.8013 -47.254
rfingers 7.12502
rthumb 3.63496 -77.2027
lclavicle -2.15557e-015 5.86415e-015
lhumerus -37.4169 -5.08637 88.346
lradius 33.0904
lwrist 6.58258
lhand -31.6687 -31.543
lfingers 7.12502
lthumb -4.92885 -1.62034
rfemur -19.2619 12.2832 16.7321
rtibia 22.1227
rfoot -12.8278 -18.1845
rtoes -9.32271
lfemur -17.1112 -13.4697 -12.0664
ltibia 20.8965
lfoot -13.105 25.2125
ltoes -8.82816
